<svg xmlns="http://www.w3.org/2000/svg" viewBox="0 0 100 100" fill="#31393c"><defs><path id="a" d="M16,73C30-1 103,11 98,44.5q2,2 1.5,5-1,5-7,4C77,49.5 75,55 65,58C37,63 35,58 23,74.5Q33,81 32.5,90a1.8,1.8 0 01-3,1c-2-5-9-3-12-7-3,2.5-12,0-14,3a1.8,1.8 0 01-3-1Q4,76 16,73"/></defs><path d="M50,23q-3 .5-7 .1t-8.7 5q-1,2 6,3M83,52q0 11-8 14-5 1-3.5-3t-3-10"/><use href="#a" fill="#2ec0f9"/><mask id="b"><use href="#a" fill="#fff"/></mask><path mask="url(#b)" fill="#fbfff1" d="M30 70q1-12 10-16s25-10 29-15q6-6 11.5-1s9 10 20 12v5"/><path d="M79.5,33.5a2.8,2.8 0 11 3,2a7,7 0 00-3-2"/><path d="M51,46c9-5 15-4.5 18.5 0c-2 8-27 8-26.5 1q0-1 1-1z"/></svg>
